<?xml version="1.0" standalone="no"?>
<!DOCTYPE svg PUBLIC "-//W3C//DTD SVG 20010904//EN"
 "http://www.w3.org/TR/2001/REC-SVG-20010904/DTD/svg10.dtd">
<svg version="1.0" xmlns="http://www.w3.org/2000/svg"
 width="1024.000000pt" height="1024.000000pt" viewBox="0 0 1024.000000 1024.000000"
 preserveAspectRatio="xMidYMid meet">
<metadata>
Created by potrace 1.11, written by Peter Selinger 2001-2013
</metadata>
<g transform="translate(0.000000,1024.000000) scale(0.100000,-0.100000)"
fill="#000000" stroke="none">
<path d="M4785 10069 c-729 -48 -1452 -264 -2105 -629 -134 -75 -423 -266
-560 -370 -1237 -943 -1960 -2399 -1960 -3950 0 -770 177 -1520 521 -2210 335
-671 804 -1245 1394 -1705 135 -106 442 -312 589 -395 603 -345 1289 -560
2013 -632 167 -16 719 -16 886 0 637 64 1199 223 1752 496 504 250 918 547
1315 945 394 394 690 809 935 1306 209 426 335 798 424 1255 139 717 117 1448
-64 2168 -132 524 -364 1048 -670 1512 -298 451 -708 886 -1152 1223 -127 96
-416 286 -543 357 -852 476 -1808 693 -2775 629z m780 -973 c1363 -158 2543
-991 3146 -2220 208 -422 327 -831 385 -1321 25 -209 25 -661 0 -865 -32 -261
-101 -588 -168 -785 l-23 -70 -240 0 -240 0 -59 28 c-51 23 -105 74 -395 368
-185 188 -349 359 -364 380 -42 57 -54 130 -33 203 16 54 29 70 162 206 l144
147 0 109 c-1 147 -12 169 -153 312 -160 162 -145 156 -418 162 l-226 5 -49
30 c-30 19 -60 49 -79 79 -26 42 -30 59 -30 115 1 42 7 77 17 96 30 54 253
274 300 295 40 18 67 20 396 20 237 0 369 4 400 12 59 15 135 88 151 144 6 22
11 100 11 174 0 149 -11 189 -66 244 -66 66 -66 66 -525 66 -466 0 -475 -1
-565 -69 -35 -26 -59 -56 -83 -104 -32 -62 -35 -76 -41 -194 -5 -79 -13 -141
-23 -163 -26 -60 -74 -118 -120 -144 -24 -15 -199 -78 -388 -142 -363 -121
-386 -133 -415 -201 -8 -18 -14 -55 -14 -83 0 -67 -20 -111 -66 -146 l-37 -29
-201 -3 c-193 -3 -203 -2 -246 20 -52 27 -90 89 -90 149 0 43 -32 94 -79 126
-28 19 -48 23 -108 23 -79 0 -113 -12 -149 -52 -12 -12 -70 -118 -128 -235
-118 -233 -152 -278 -246 -322 l-55 -26 -285 0 c-251 0 -291 2 -338 18 -70 25
-152 101 -183 169 -24 52 -24 57 -24 388 0 335 0 335 24 385 18 36 94 121 276
305 168 171 259 272 277 306 32 59 58 160 58 224 0 55 26 108 68 136 18 12
217 83 444 159 226 75 423 142 437 150 14 7 161 150 327 317 315 318 324 329
324 415 0 80 -58 168 -135 204 -35 16 -67 19 -275 19 l-235 0 -157 -157 -158
-158 0 -95 c0 -122 -22 -173 -90 -207 -41 -21 -57 -23 -230 -23 -209 0 -247
10 -291 71 -24 34 -24 36 -24 291 0 243 1 258 20 285 12 15 158 131 325 257
l304 229 211 -6 c115 -4 269 -13 340 -21z m-1949 -1142 c35 -21 56 -44 76 -83
l28 -53 0 -212 c0 -184 -3 -216 -19 -251 -11 -24 -73 -94 -152 -172 -110 -108
-142 -133 -178 -143 -28 -7 -113 -10 -245 -8 -200 3 -201 3 -249 31 -93 55
-133 157 -102 265 16 55 27 68 298 339 314 314 330 326 433 320 47 -2 73 -10
110 -33z m2084 -3188 c85 -24 212 -83 286 -133 33 -22 259 -212 503 -422 l444
-381 227 0 c247 0 294 -7 408 -60 91 -42 121 -68 367 -310 271 -268 258 -261
508 -268 92 -2 167 -7 167 -11 0 -4 -24 -47 -53 -97 -332 -560 -826 -1059
-1373 -1384 -545 -325 -1150 -517 -1775 -566 l-87 -6 -3 113 c-4 100 -7 121
-32 171 -32 65 -89 121 -156 152 -43 19 -68 21 -346 27 -328 6 -376 13 -561
74 -175 58 -260 108 -549 325 -149 111 -285 216 -304 233 -117 111 -222 290
-263 452 -22 86 -23 108 -23 455 0 345 1 370 22 453 43 165 124 308 242 427
86 86 81 83 611 400 466 279 532 316 633 345 107 31 150 33 597 31 394 -2 452
-4 510 -20z"/>
</g>
</svg>
